<?xml version="1.0" encoding="utf-8"?>
<!-- Generator: Adobe Illustrator 16.0.4, SVG Export Plug-In . SVG Version: 6.00 Build 0)  -->
<!DOCTYPE svg PUBLIC "-//W3C//DTD SVG 1.1//EN" "http://www.w3.org/Graphics/SVG/1.1/DTD/svg11.dtd">
<svg version="1.1" id="Layer_1" xmlns="http://www.w3.org/2000/svg" xmlns:xlink="http://www.w3.org/1999/xlink" x="0px" y="0px"
	 width="144px" height="144px" viewBox="0 0 144 144" enable-background="new 0 0 144 144" xml:space="preserve">
<g id="Layer_1_1_">
</g>
<g id="Layer_2">
	<path stroke="#1313E5" fill="#1313E5" stroke-miterlimit="10" d="M0,0v144h144V0H0z M99.377,98.796c-1.676,3.146-3.946,5.762-6.812,7.862
		c-2.866,2.103-6.221,3.681-10.058,4.741c-3.836,1.061-7.938,1.591-12.303,1.591c-2.955,0-5.699-0.228-8.234-0.673
		c-2.535-0.451-4.771-0.987-6.715-1.621c-1.938-0.636-3.561-1.294-4.857-1.988c-1.305-0.693-2.238-1.307-2.812-1.836
		c-0.572-0.528-0.98-1.293-1.223-2.295c-0.243-0.998-0.364-2.438-0.364-4.312c0-1.263,0.044-2.321,0.133-3.182
		c0.088-0.856,0.231-1.549,0.431-2.079c0.197-0.529,0.463-0.908,0.795-1.133c0.328-0.223,0.717-0.336,1.154-0.336
		c0.618,0,1.488,0.336,2.613,1.01c1.124,0.673,2.568,1.417,4.333,2.232c1.765,0.814,3.869,1.561,6.315,2.23
		c2.445,0.674,5.279,1.01,8.5,1.01c2.115,0,4.014-0.232,5.688-0.701c1.675-0.47,3.099-1.136,4.267-1.988
		c1.17-0.855,2.062-1.916,2.682-3.185c0.617-1.262,0.926-2.669,0.926-4.221c0-1.795-0.529-3.334-1.588-4.62
		c-1.061-1.283-2.438-2.425-4.135-3.426c-1.696-0.999-3.627-1.936-5.787-2.812c-2.16-0.879-4.389-1.806-6.684-2.785
		c-2.293-0.979-4.52-2.088-6.68-3.334c-2.161-1.242-4.091-2.73-5.788-4.465c-1.698-1.732-3.075-3.783-4.134-6.148
		c-1.059-2.364-1.588-5.2-1.588-8.504c0-3.794,0.761-7.128,2.281-10.003c1.521-2.876,3.57-5.263,6.15-7.158
		c2.579-1.896,5.622-3.312,9.128-4.252c3.507-0.938,7.224-1.407,11.146-1.407c2.026,0,4.057,0.146,6.085,0.43
		c2.027,0.285,3.925,0.672,5.688,1.162c1.768,0.488,3.33,1.041,4.696,1.651c1.367,0.61,2.271,1.123,2.712,1.528
		c0.441,0.406,0.739,0.757,0.896,1.039c0.151,0.285,0.284,0.664,0.396,1.133c0.109,0.47,0.188,1.062,0.23,1.773
		c0.044,0.715,0.063,1.603,0.063,2.662c0,1.184-0.033,2.182-0.1,2.997c-0.065,0.817-0.176,1.49-0.331,2.019
		c-0.153,0.531-0.374,0.92-0.66,1.162c-0.287,0.246-0.673,0.367-1.158,0.367c-0.482,0-1.257-0.283-2.312-0.854
		c-1.062-0.571-2.36-1.193-3.903-1.866s-3.329-1.284-5.356-1.835c-2.026-0.551-4.256-0.826-6.682-0.826
		c-1.896,0-3.55,0.216-4.961,0.644c-1.411,0.429-2.591,1.021-3.539,1.773c-0.947,0.758-1.652,1.661-2.115,2.723
		c-0.465,1.062-0.693,2.184-0.693,3.367c0,1.754,0.519,3.271,1.556,4.557c1.035,1.285,2.425,2.427,4.167,3.426
		c1.741,1.001,3.715,1.938,5.92,2.814c2.205,0.879,4.453,1.805,6.746,2.782c2.293,0.979,4.542,2.091,6.747,3.334
		c2.205,1.245,4.167,2.733,5.887,4.468c1.723,1.734,3.108,3.771,4.167,6.116c1.062,2.349,1.588,5.109,1.588,8.291
		C101.891,92.006,101.053,95.655,99.377,98.796z"/>
</g>
</svg>
