<?xml version="1.0" encoding="utf-8"?>
<!-- Generator: Adobe Illustrator 18.0.0, SVG Export Plug-In . SVG Version: 6.00 Build 0)  -->
<!DOCTYPE svg PUBLIC "-//W3C//DTD SVG 1.1//EN" "http://www.w3.org/Graphics/SVG/1.1/DTD/svg11.dtd">
<svg version="1.1" id="Layer_1" xmlns="http://www.w3.org/2000/svg" xmlns:xlink="http://www.w3.org/1999/xlink" x="0px" y="0px"
	 viewBox="0 0 320.9 37.5" enable-background="new 0 0 320.9 37.5" xml:space="preserve">
<g>
	<g>
		<g>
			<polyline fill="none" stroke="#010101" stroke-width="2" stroke-linecap="round" stroke-linejoin="round" points="2.1,21.8 
				4.8,22.8 1,29.9 9.4,33 			"/>
			<polyline fill="none" stroke="#010101" stroke-width="2" stroke-linecap="round" stroke-linejoin="round" points="29.1,1.8 
				31.8,2.8 9,3 24.8,8.7 20.2,15.6 24.8,17.2 20.2,24.1 24.8,25.7 18,31.8 22.6,33.5 			"/>
			<polyline fill="none" stroke="#010101" stroke-width="2" stroke-linecap="round" stroke-linejoin="round" points="59.4,25.9 
				65.1,28 56.3,33.3 64.8,36.4 			"/>
			<polyline fill="none" stroke="#010101" stroke-width="2" stroke-linecap="round" stroke-linejoin="round" points="51.7,6.5 
				57.2,8.5 55.8,16.5 61.2,18.5 			"/>
			<polyline fill="none" stroke="#010101" stroke-width="2" stroke-linecap="round" stroke-linejoin="round" points="51.7,1.8 
				54.9,2.9 46.3,8.3 50,9.7 43.5,15.8 47.2,17.2 40.7,23.3 46.3,25.4 37.9,30.8 47.9,34.4 			"/>
			<polyline fill="none" stroke="#010101" stroke-width="2" stroke-linecap="round" stroke-linejoin="round" points="94.4,8.5 
				101.7,11.2 98.4,18.5 103.1,20.2 97,26.5 101.1,28 89.1,32.1 95.4,34.4 			"/>
			<polyline fill="none" stroke="#010101" stroke-width="2" stroke-linecap="round" stroke-linejoin="round" points="89.7,2 
				96.6,4.5 72.8,4.4 80.7,7.3 76.2,14.1 80.7,15.8 76.2,22.7 80.7,24.3 76.3,31.2 90,36.2 			"/>
			<polyline fill="none" stroke="#010101" stroke-width="2" stroke-linecap="round" stroke-linejoin="round" points="134.8,24.2 
				137.1,25 133.4,32.2 137.4,33.7 			"/>
			
				<line fill="none" stroke="#010101" stroke-width="2" stroke-linecap="round" stroke-linejoin="round" x1="126.6" y1="11.6" x2="128.8" y2="12.4"/>
			
				<line fill="none" stroke="#010101" stroke-width="2" stroke-linecap="round" stroke-linejoin="round" x1="133.3" y1="6.5" x2="137.4" y2="7.9"/>
			<polyline fill="none" stroke="#010101" stroke-width="2" stroke-linecap="round" stroke-linejoin="round" points="134.4,1.8 
				137.1,2.7 111,1.8 122.5,5.9 113.1,11 117.7,12.7 113.1,19.6 117.7,21.2 113.1,28.1 117.7,29.7 107.8,34.6 112.8,36.5 			"/>
			<polyline fill="none" stroke="#010101" stroke-width="2" stroke-linecap="round" stroke-linejoin="round" points="188.6,1.8 
				191.6,2.9 180.8,7.4 185.5,9.2 182.2,16.5 186.7,18.1 183.5,25.5 187.9,27.1 184.9,34.5 189.5,36.2 			"/>
			<polyline fill="none" stroke="#010101" stroke-width="2" stroke-linecap="round" stroke-linejoin="round" points="195.5,10.1 
				198.1,11 191.7,17.2 194.7,18.3 189.4,24.9 192.5,26 			"/>
			<polyline fill="none" stroke="#010101" stroke-width="2" stroke-linecap="round" stroke-linejoin="round" points="195.8,15.6 
				200.1,17.1 198.8,25.2 203.2,26.8 201.9,34.8 206.2,36.4 			"/>
			<polyline fill="none" stroke="#010101" stroke-width="2" stroke-linecap="round" stroke-linejoin="round" points="210.7,1.8 
				213.3,2.7 206.5,8.7 210.3,10.2 205.5,16.9 209.2,18.2 204.5,25 208,26.3 			"/>
			<polyline fill="none" stroke="#010101" stroke-width="2" stroke-linecap="round" stroke-linejoin="round" points="238.1,7.1 
				245.6,9.8 242.3,17.1 247.6,19 241.6,25.4 246.2,27 236.7,32.1 241.4,33.8 			"/>
			<polyline fill="none" stroke="#010101" stroke-width="2" stroke-linecap="round" stroke-linejoin="round" points="233.6,1 
				240.4,3.5 221.4,5.1 225.9,6.7 217.1,12 221.8,13.7 216.1,20.2 221.4,22.1 218.7,29.6 237.1,36.4 			"/>
			<polyline fill="none" stroke="#010101" stroke-width="2" stroke-linecap="round" stroke-linejoin="round" points="258,1.8 
				261.1,2.9 255.7,9.4 259.8,10.9 255.7,17.9 259.8,19.4 255.7,26.5 259.8,28 252.3,33.7 259.8,36.5 			"/>
			<polyline fill="none" stroke="#010101" stroke-width="2" stroke-linecap="round" stroke-linejoin="round" points="260.2,9 
				265.9,11.1 266.5,19.8 272.2,21.8 272.7,30.6 280.5,33.4 			"/>
			<polyline fill="none" stroke="#010101" stroke-width="2" stroke-linecap="round" stroke-linejoin="round" points="280.8,1.8 
				283.6,2.8 276.4,8.7 280.5,10.2 276.4,17.2 280.5,18.7 276.4,25.7 280.5,27.2 			"/>
			<polyline fill="none" stroke="#010101" stroke-width="2" stroke-linecap="round" stroke-linejoin="round" points="317.5,20.7 
				319.9,21.5 313.1,27.6 317.5,29.2 305.3,33.2 313.4,36.2 			"/>
			
				<line fill="none" stroke="#010101" stroke-width="2" stroke-linecap="round" stroke-linejoin="round" x1="310.1" y1="6.6" x2="317.2" y2="9.2"/>
			<polyline fill="none" stroke="#010101" stroke-width="2" stroke-linecap="round" stroke-linejoin="round" points="314.2,1.3 
				316.8,2.2 296.1,3.2 301.6,5.2 290.2,9.5 294.7,11.2 288,17.2 293.1,19.1 288.9,26.1 296.1,28.7 			"/>
		</g>
	</g>
</g>
</svg>
