<svg id="Layer_1" data-name="Layer 1" xmlns="http://www.w3.org/2000/svg" viewBox="0 0 1280 800"><defs><style>.cls-1{fill:none;stroke:#000;stroke-linecap:round;stroke-linejoin:round;stroke-width:2px;}</style></defs><title>Artboard 11</title><polyline class="cls-1" points="482.34 396.78 484.98 397.74 481.2 404.88 489.63 407.94"/><polyline class="cls-1" points="509.29 376.69 512.03 377.69 489.17 377.88 505.01 383.65 500.43 390.5 505.01 392.16 500.44 399.01 504.95 400.66 498.15 406.69 502.81 408.39"/><polyline class="cls-1" points="539.61 400.87 545.25 402.93 536.51 408.26 545 411.35"/><polyline class="cls-1" points="531.92 381.46 537.44 383.47 535.97 391.45 541.44 393.44"/><polyline class="cls-1" points="531.93 376.72 535.1 377.88 526.51 383.26 530.19 384.6 523.71 390.76 527.44 392.11 520.91 398.25 526.49 400.28 518.1 405.74 528.06 409.37"/><polyline class="cls-1" points="574.63 383.45 581.9 386.09 578.57 393.39 583.27 395.1 577.18 401.4 581.32 402.91 569.29 407.04 575.56 409.33"/><polyline class="cls-1" points="569.86 376.93 576.8 379.45 553 379.31 560.91 382.19 556.42 389.06 560.92 390.7 556.44 397.58 560.93 399.22 556.46 406.1 570.18 411.1"/><polyline class="cls-1" points="614.99 399.12 617.33 399.97 613.56 407.11 617.63 408.59"/><line class="cls-1" x1="606.81" y1="386.54" x2="609" y2="387.34"/><line class="cls-1" x1="613.53" y1="381.39" x2="617.63" y2="382.88"/><polyline class="cls-1" points="614.63 376.69 617.33 377.68 591.24 376.69 602.73 380.87 593.32 385.96 597.93 387.64 593.33 394.48 597.92 396.15 593.34 403 597.94 404.67 587.99 409.56 592.98 411.38"/><polyline class="cls-1" points="668.75 376.69 671.81 377.81 660.97 382.37 665.71 384.1 662.35 391.39 666.93 393.06 663.73 400.41 668.14 402.01 665.12 409.42 669.7 411.09"/><polyline class="cls-1" points="675.69 384.98 678.27 385.92 671.86 392.1 674.89 393.21 669.64 399.81 672.74 400.94"/><polyline class="cls-1" points="676 390.49 680.29 392.05 679.04 400.11 683.42 401.7 682.07 409.72 686.38 411.3"/><polyline class="cls-1" points="690.88 376.69 693.48 377.64 686.66 383.67 690.53 385.08 685.67 391.82 689.38 393.18 684.67 399.98 688.23 401.27"/><polyline class="cls-1" points="718.33 382 725.77 384.7 722.52 392.04 727.78 393.95 721.8 400.29 726.38 401.95 716.87 407 721.65 408.74"/><polyline class="cls-1" points="713.78 375.93 720.57 378.4 701.55 379.99 706.11 381.65 697.28 386.95 701.97 388.66 696.32 395.11 701.56 397.02 698.87 404.56 717.35 411.28"/><polyline class="cls-1" points="738.24 376.69 741.29 377.8 735.91 384.36 740.01 385.85 735.92 392.87 740.02 394.37 735.93 401.39 740.03 402.88 732.54 408.67 739.98 411.38"/><polyline class="cls-1" points="740.4 383.91 746.1 385.98 746.66 394.7 752.35 396.77 752.92 405.49 760.72 408.33"/><polyline class="cls-1" points="761.04 376.69 763.77 377.69 756.59 383.59 760.72 385.09 756.6 392.11 760.72 393.6 756.61 400.62 760.72 402.12"/><polyline class="cls-1" points="797.7 395.59 800.12 396.47 793.34 402.51 797.72 404.11 785.49 408.17 793.63 411.13"/><line class="cls-1" x1="790.27" y1="381.57" x2="797.37" y2="384.15"/><polyline class="cls-1" points="794.43 376.18 796.98 377.11 776.29 378.09 781.75 380.08 770.37 384.45 774.85 386.08 768.2 392.18 773.34 394.05 769.12 401.02 776.33 403.65"/></svg>